<svg width="35" height="35" viewBox="0 0 35 35" fill="none" xmlns="http://www.w3.org/2000/svg">
<g id="crucified-pose" clip-path="url(#clip0_1_33098)">
<g id="Group">
<g id="Group_2">
<path id="Vector" d="M17.6979 5.89189C19.3249 5.89189 20.6438 4.57295 20.6438 2.94595C20.6438 1.31894 19.3249 0 17.6979 0C16.0709 0 14.752 1.31894 14.752 2.94595C14.752 4.57295 16.0709 5.89189 17.6979 5.89189Z" fill="white"/>
<path id="Vector_2" d="M29.4821 7.02587C26.2527 7.02587 23.0207 7.02587 19.7919 7.02587C18.5495 6.2166 16.7902 6.21407 15.5604 7.02587C12.213 7.02587 8.86432 7.02587 5.51691 7.02587C3.61806 7.02587 3.61806 9.96991 5.51691 9.96991C8.38485 9.96991 11.2528 9.96991 14.1207 9.96991C14.1207 12.7827 14.1207 15.5954 14.1207 18.4088C14.1207 18.4799 14.1277 18.5477 14.1309 18.6181C14.1296 18.6517 14.1214 18.6803 14.1214 18.7145C14.1214 23.6018 14.1125 28.4891 13.9108 33.3732C13.8214 35.546 17.1884 35.5372 17.2779 33.3732C17.4364 29.5451 17.4751 25.715 17.4846 21.8843C17.6444 21.8945 17.8043 21.8958 17.9635 21.8856C17.9736 25.7157 18.0123 29.5457 18.1702 33.3732C18.2596 35.5372 21.6261 35.546 21.5373 33.3732C21.3356 28.4891 21.3267 23.6018 21.3267 18.7145C21.3267 18.5648 21.3083 18.4259 21.2772 18.2966C21.2772 15.5212 21.2772 12.7459 21.2772 9.96991C24.0126 9.96991 26.7499 9.96991 29.4834 9.96991C31.381 9.96991 31.381 7.02587 29.4821 7.02587Z" fill="white"/>
</g>
</g>
</g>
<defs>
<clipPath id="clip0_1_33098">
<rect width="35" height="35" fill="white"/>
</clipPath>
</defs>
</svg>
