<svg width="50" height="50" viewBox="0 0 50 50" fill="none" xmlns="http://www.w3.org/2000/svg">
<g id="crucified-pose" clip-path="url(#clip0_1_32814)">
<g id="Group">
<g id="Group_2">
<path id="Vector" d="M25.2837 8.41699C27.608 8.41699 29.4922 6.53278 29.4922 4.20849C29.4922 1.88421 27.608 0 25.2837 0C22.9594 0 21.0752 1.88421 21.0752 4.20849C21.0752 6.53278 22.9594 8.41699 25.2837 8.41699Z" fill="white"/>
<path id="Vector_2" d="M42.1172 10.0364C37.5037 10.0364 32.8866 10.0364 28.274 10.0364C26.4991 8.88031 23.9858 8.87668 22.229 10.0364C17.447 10.0364 12.6632 10.0364 7.88116 10.0364C5.16852 10.0364 5.16852 14.2422 7.88116 14.2422C11.9782 14.2422 16.0753 14.2422 20.1723 14.2422C20.1723 18.2604 20.1723 22.2786 20.1723 26.2978C20.1723 26.3992 20.1823 26.4962 20.1868 26.5968C20.185 26.6448 20.1732 26.6855 20.1732 26.7345C20.1732 33.7163 20.1605 40.6982 19.8724 47.6755C19.7447 50.7795 24.5548 50.7668 24.6825 47.6755C24.909 42.2067 24.9643 36.7352 24.9779 31.2628C25.2062 31.2773 25.4345 31.2791 25.6619 31.2646C25.6764 36.7361 25.7317 42.2076 25.9573 47.6755C26.0851 50.7668 30.8942 50.7795 30.7674 47.6755C30.4793 40.6982 30.4666 33.7163 30.4666 26.7345C30.4666 26.5206 30.4403 26.3222 30.3959 26.1374C30.3959 22.1726 30.3959 18.2079 30.3959 14.2422C34.3036 14.2422 38.214 14.2422 42.119 14.2422C44.8298 14.2422 44.8298 10.0364 42.1172 10.0364Z" fill="white"/>
</g>
</g>
</g>
<defs>
<clipPath id="clip0_1_32814">
<rect width="50" height="50" fill="white"/>
</clipPath>
</defs>
</svg>
