<svg width="21" height="22" viewBox="0 0 21 22" fill="none" xmlns="http://www.w3.org/2000/svg">
<g id="crucified-pose" clip-path="url(#clip0_1_32071)">
<g id="Group">
<g id="Group_2">
<path id="Vector" d="M10.3127 4.2582C11.2534 4.2582 12.016 3.49559 12.016 2.55488C12.016 1.61416 11.2534 0.851562 10.3127 0.851562C9.37198 0.851562 8.60938 1.61416 8.60938 2.55488C8.60938 3.49559 9.37198 4.2582 10.3127 4.2582Z" fill="white"/>
<path id="Vector_2" d="M17.1262 4.91398C15.2589 4.91398 13.3902 4.91398 11.5234 4.91398C10.805 4.44607 9.78779 4.44461 9.07676 4.91398C7.14132 4.91398 5.20515 4.91398 3.26971 4.91398C2.17181 4.91398 2.17181 6.6162 3.26971 6.6162C4.92792 6.6162 6.58614 6.6162 8.24435 6.6162C8.24435 8.24251 8.24435 9.86882 8.24435 11.4955C8.24435 11.5366 8.24838 11.5758 8.25022 11.6165C8.24948 11.6359 8.24472 11.6524 8.24472 11.6722C8.24472 14.498 8.23958 17.3238 8.12297 20.1478C8.07127 21.4041 10.0181 21.3989 10.0698 20.1478C10.1615 17.9344 10.1838 15.7199 10.1893 13.505C10.2817 13.5109 10.3741 13.5116 10.4662 13.5057C10.472 15.7202 10.4944 17.9347 10.5857 20.1478C10.6374 21.3989 12.5839 21.4041 12.5325 20.1478C12.4159 17.3238 12.4108 14.498 12.4108 11.6722C12.4108 11.5857 12.4001 11.5054 12.3822 11.4306C12.3822 9.82591 12.3822 8.22124 12.3822 6.6162C13.9638 6.6162 15.5464 6.6162 17.1269 6.6162C18.2241 6.6162 18.2241 4.91398 17.1262 4.91398Z" fill="white"/>
</g>
</g>
</g>
<defs>
<clipPath id="clip0_1_32071">
<rect width="20.2366" height="20.2366" fill="white" transform="translate(0.0800781 0.851562)"/>
</clipPath>
</defs>
</svg>
