<svg width="22" height="22" viewBox="0 0 22 22" fill="none" xmlns="http://www.w3.org/2000/svg">
<g id="dancer-motion" clip-path="url(#clip0_1_31797)">
<g id="Group">
<g id="Group_2">
<path id="Vector" d="M18.9943 7.91731C16.8115 9.07712 14.639 10.2748 12.5166 11.5484C11.7619 10.7999 11.1364 10.2042 10.9752 9.49587C10.9841 9.45355 10.9473 9.01641 10.9495 8.95459C10.9579 8.73234 10.969 8.51009 10.9925 8.28858C11.0606 7.66488 11.1732 7.04523 11.2748 6.42558C11.4396 5.41553 11.0098 4.41062 9.94678 4.12582C9.56888 4.02463 9.13874 4.06289 8.75201 4.21192C8.61071 4.13465 8.44844 4.08092 8.26335 4.06032C6.70061 3.88701 5.16658 3.54296 3.69509 2.9866C2.22582 2.43135 1.59734 4.78153 3.04895 5.33053C4.48401 5.87327 5.96947 6.18972 7.48143 6.39431C7.47628 6.42301 7.4715 6.45171 7.46598 6.48041C5.70012 6.8193 3.96849 7.29802 2.26372 7.88529C0.790763 8.39235 1.42366 10.7414 2.90986 10.2292C4.3118 9.74608 5.73103 9.33654 7.17271 9.01751C7.17124 9.54812 7.22496 10.071 7.36736 10.5736C7.70589 11.7651 8.44586 12.7247 9.27709 13.6071C8.77004 13.9515 8.26004 14.2897 7.72429 14.5815C6.77274 15.0999 5.71374 15.7899 5.34762 16.8732C4.66799 18.8844 6.76574 19.6814 7.831 20.9093C8.85945 22.0957 10.5716 20.3688 9.54975 19.1902C9.03865 18.6011 8.34394 18.2387 7.8023 17.6878C7.54178 17.4218 7.576 17.6621 7.8608 17.4034C8.27439 17.027 8.75421 16.8062 9.23367 16.5265C10.739 15.6493 12.1516 14.6032 13.6529 13.7109C15.8125 12.4289 18.0022 11.1955 20.2203 10.0158C21.6053 9.27987 20.3778 7.18175 18.9943 7.91731Z" fill="white"/>
<path id="Vector_2" d="M12.3896 4.60727C13.4429 4.60727 14.2967 3.75341 14.2967 2.70012C14.2967 1.64683 13.4429 0.792969 12.3896 0.792969C11.3363 0.792969 10.4824 1.64683 10.4824 2.70012C10.4824 3.75341 11.3363 4.60727 12.3896 4.60727Z" fill="white"/>
</g>
</g>
</g>
<defs>
<clipPath id="clip0_1_31797">
<rect width="20.5172" height="20.5172" fill="white" transform="translate(0.869141 0.792969)"/>
</clipPath>
</defs>
</svg>
