<svg width="35" height="35" viewBox="0 0 35 35" fill="none" xmlns="http://www.w3.org/2000/svg">
<g id="dancer-motion" clip-path="url(#clip0_1_33351)">
<g id="Group">
<g id="Group_2">
<path id="Vector" d="M30.9202 12.1565C27.1967 14.135 23.4908 16.1782 19.8702 18.3507C18.5828 17.0739 17.5157 16.0577 17.2407 14.8493C17.2558 14.7772 17.193 14.0314 17.1968 13.926C17.2112 13.5469 17.2301 13.1677 17.2702 12.7898C17.3864 11.7259 17.5784 10.6688 17.7517 9.6118C18.0329 7.88876 17.2997 6.1745 15.4863 5.68866C14.8417 5.51605 14.1079 5.58133 13.4482 5.83555C13.2071 5.70373 12.9303 5.61208 12.6146 5.57693C9.94873 5.28128 7.33184 4.69438 4.82166 3.7453C2.31525 2.7981 1.24314 6.80723 3.71942 7.74376C6.16745 8.66962 8.70148 9.20944 11.2807 9.55844C11.2719 9.6074 11.2638 9.65636 11.2543 9.70532C8.24201 10.2834 5.28804 11.1001 2.3799 12.1019C-0.132784 12.9669 0.946862 16.9741 3.48215 16.1003C5.87369 15.2762 8.29473 14.5775 10.7541 14.0333C10.7516 14.9385 10.8432 15.8304 11.0861 16.6879C11.6636 18.7204 12.9259 20.3574 14.3439 21.8626C13.4789 22.4502 12.6089 23.027 11.695 23.5248C10.0718 24.4092 8.26523 25.5862 7.64067 27.4341C6.48131 30.8651 10.0598 32.2247 11.877 34.3194C13.6315 36.3431 16.5521 33.3973 14.809 31.3868C13.9371 30.3818 12.752 29.7635 11.8281 28.8239C11.3837 28.37 11.442 28.7799 11.9279 28.3386C12.6334 27.6965 13.4519 27.3199 14.2698 26.8428C16.8377 25.3464 19.2475 23.5618 21.8085 22.0397C25.4925 19.8527 29.2279 17.7487 33.0117 15.7363C35.3744 14.4809 33.2804 10.9017 30.9202 12.1565Z" fill="white"/>
<path id="Vector_2" d="M19.6538 6.50675C21.4506 6.50675 22.9071 5.05017 22.9071 3.25338C22.9071 1.45659 21.4506 0 19.6538 0C17.857 0 16.4004 1.45659 16.4004 3.25338C16.4004 5.05017 17.857 6.50675 19.6538 6.50675Z" fill="white"/>
</g>
</g>
</g>
<defs>
<clipPath id="clip0_1_33351">
<rect width="35" height="35" fill="white"/>
</clipPath>
</defs>
</svg>
