<svg width="50" height="50" viewBox="0 0 50 50" fill="none" xmlns="http://www.w3.org/2000/svg">
<g id="dancer-balance-posture-on-one-leg">
<g id="Group">
<g id="Group_2">
<path id="Vector" d="M45.9691 20.2821C44.8667 15.6186 42.9402 10.2994 39.3765 6.9439C39.2719 6.84455 39.1639 6.75643 39.0542 6.67435C41.0672 4.68731 37.8741 1.57802 35.6883 3.51237C31.4456 7.27047 26.5056 10.0307 21.3367 12.302C21.1415 12.3625 20.9514 12.4368 20.7665 12.5223C16.3501 12.3374 10.941 11.3949 7.86113 8.22856C5.78078 6.08947 2.51599 9.36031 4.59461 11.496C7.88791 14.8834 12.9972 16.3806 17.849 16.9223C17.8439 17.3672 17.9026 17.8156 18.0443 18.2571C19.9389 24.162 24.0115 29.9374 30.0564 32.023C30.4529 32.1612 30.8564 32.2234 31.2564 32.2337C31.2564 37.1322 31.2564 42.029 31.2564 46.9258C31.2564 51.0225 37.6106 51.0225 37.6106 46.9258C37.6106 40.7443 37.6106 34.5612 37.6106 28.3815C41.7091 26.7988 46.865 24.0627 45.9691 20.2821ZM33.7048 23.0389C33.3747 22.8454 33.0248 22.6787 32.6525 22.5508C33.0102 22.7469 32.922 22.7029 32.3838 22.4186C32.1039 22.2735 31.989 22.2268 31.9449 22.2173C31.9147 22.1776 31.8197 22.0826 31.5657 21.8674C30.9903 21.3828 30.3 20.6666 29.9251 20.1681C28.7873 18.6562 27.9536 17.0294 27.5311 15.7154C27.4128 15.3517 27.2581 15.0087 27.0775 14.6856C29.5415 13.4458 31.919 12.0601 34.1834 10.4972C34.3423 10.8212 34.5696 11.1374 34.8858 11.4346C37.1968 13.6117 38.4978 16.9422 39.3635 20.0843C37.6935 21.4476 35.7652 22.3305 33.7048 23.0389Z" fill="white"/>
<path id="Vector_2" d="M19.3743 10.8717C22.3765 10.8717 24.8102 8.43799 24.8102 5.43585C24.8102 2.43371 22.3765 0 19.3743 0C16.3722 0 13.9385 2.43371 13.9385 5.43585C13.9385 8.43799 16.3722 10.8717 19.3743 10.8717Z" fill="white"/>
</g>
</g>
</g>
</svg>
