<svg width="50" height="50" viewBox="0 0 50 50" fill="none" xmlns="http://www.w3.org/2000/svg">
<g id="gymnast-girl" clip-path="url(#clip0_1_32855)">
<g id="Group">
<g id="Group_2">
<path id="Vector" d="M32.3204 7.5387C32.3204 7.5387 35.6235 13.364 35.6235 10.1426C35.6235 6.92291 33.0106 4.3125 29.7917 4.3125C26.572 4.3125 23.96 6.92291 23.96 10.1426C23.9608 13.364 32.3204 7.5387 32.3204 7.5387Z" fill="white"/>
<path id="Vector_2" d="M36.4858 3.25654C36.8005 3.08014 37.1088 2.91426 37.3848 2.79693C37.6534 2.67879 37.9285 2.62619 37.9568 2.69012C37.973 2.71601 37.8889 2.75243 37.8096 2.74676C37.7295 2.74191 37.6979 2.72653 37.7068 2.76699C37.7068 2.7945 37.7481 2.89889 37.761 2.95148L37.8063 3.06639C37.7974 3.05668 37.8258 3.12708 37.8322 3.15216L37.9034 3.37307L38.5257 5.34585C38.9934 6.72631 39.6367 8.27588 40.8788 9.51555C41.497 10.1232 42.2682 10.6144 43.0887 10.8499C43.9092 11.0854 44.7499 11.0894 45.5113 10.8644C44.8381 10.4372 44.2612 10.0221 43.8161 9.54468C43.367 9.07454 43.0353 8.57933 42.7618 8.04041C42.2147 6.97068 41.8717 5.73101 41.4201 4.37483C41.1879 3.69674 40.9411 2.98628 40.5745 2.24831L40.4289 1.97076L40.3407 1.80892L40.2662 1.68269C40.1101 1.41323 39.9547 1.21337 39.7144 0.968995C39.4805 0.738379 39.1552 0.491579 38.7377 0.357255C38.3218 0.219695 37.8622 0.230214 37.5223 0.325697C37.1711 0.417135 36.9171 0.572497 36.7034 0.723004C36.4914 0.876748 36.3158 1.03292 36.1694 1.19718C35.8675 1.52086 35.6434 1.851 35.4395 2.17953C35.2388 2.51129 35.06 2.83739 34.8957 3.17158C34.8116 3.33746 34.7266 3.4993 34.6319 3.65385C34.5437 3.81973 34.4515 3.96781 34.3066 4.10699C34.7234 4.14502 35.1215 3.94435 35.4759 3.78898C35.8376 3.62148 36.1645 3.42971 36.4858 3.25654Z" fill="white"/>
<path id="Vector_3" d="M48.2722 42.5667C43.9512 40.2856 39.555 38.1647 35.0551 36.2891C34.6408 38.596 34.0218 40.8706 33.3623 43.0465C37.2423 44.7013 41.039 46.543 44.7887 48.5255C48.7213 50.6002 52.2081 44.6446 48.2722 42.5667Z" fill="white"/>
<path id="Vector_4" d="M32.1296 23.0252C32.0713 22.9249 32.0114 22.8335 31.9475 22.7436C31.7347 20.3404 30.4133 18.2446 27.7754 17.5196C26.6797 17.2186 25.419 17.3011 24.257 17.6944C24.1907 17.6458 24.1276 17.5973 24.0556 17.5536C18.9917 14.3662 14.1358 10.928 9.57287 7.05123C6.20425 4.18997 1.2982 9.04666 4.69433 11.9314C9.61171 16.1084 14.8236 19.8719 20.2726 23.3198C19.8511 25.6462 19.3024 27.945 18.6834 30.2253C13.6633 28.6555 8.78392 26.533 3.45224 26.3445C1.62187 26.2806 -0.0644577 27.962 0.00189503 29.7964C0.172632 34.5156 1.66152 38.8156 3.69337 43.0362C5.62245 47.0457 11.5715 43.5436 9.65217 39.5543C8.7556 37.6884 7.99092 35.7819 7.49409 33.8043C12.265 34.8854 16.8458 37.215 21.628 38.1221C21.6782 38.1318 21.7251 38.1367 21.7745 38.1415C23.1169 38.6756 24.6422 39.2889 24.9359 39.3885C25.6011 37.177 26.1708 34.9412 26.454 32.7127C26.7542 32.423 27.0827 32.19 27.4209 32.0031C27.2599 36.5758 25.6254 41.2253 24.2603 45.5042C22.9049 49.7573 29.5669 51.5609 30.915 47.3395C33.3595 39.683 36.474 30.5393 32.1296 23.0252Z" fill="white"/>
</g>
</g>
</g>
<defs>
<clipPath id="clip0_1_32855">
<rect width="50" height="50" fill="white"/>
</clipPath>
</defs>
</svg>
