<svg width="50" height="50" viewBox="0 0 50 50" fill="none" xmlns="http://www.w3.org/2000/svg">
<g id="man-doing-yoga-" clip-path="url(#clip0_1_32862)">
<g id="Group">
<g id="Group_2">
<path id="Vector" d="M38.5009 25.8878C38.2649 19.17 36.2789 12.6564 32.2626 7.22067C31.9019 6.7336 31.491 6.30259 31.0432 5.93352C29.6715 3.81196 27.9375 1.9532 25.6837 0.743872C22.3327 -1.0538 18.6027 0.522093 17.7155 4.22874C16.8853 7.70022 17.513 11.9659 17.4712 15.4943C17.4452 17.8134 17.4184 20.1341 17.3925 22.4532C19.6136 21.8983 21.9704 21.6556 24.461 21.751C24.4878 19.4052 24.5137 17.061 24.5413 14.7168C26.2076 17.4769 27.3006 20.4337 27.7182 23.6391C21.5243 22.5461 15.2952 23.3076 9.99593 27.1315C7.07179 29.2405 9.88714 34.1422 12.8448 32.0081C17.7883 28.4404 23.2667 28.1818 29.0255 29.7033C29.3276 29.7836 29.6088 29.802 29.8799 29.7953C32.9949 32.183 38.6783 30.9059 38.5009 25.8878Z" fill="white"/>
<path id="Vector_2" d="M17.2917 31.4354C17.2339 36.4845 17.177 41.536 17.1184 46.5868C17.0674 51.1404 24.1275 51.1378 24.1786 46.5868L24.0522 30.201C21.6001 30.1215 19.3664 30.5358 17.2917 31.4354Z" fill="white"/>
<path id="Vector_3" d="M35.5926 31.8789C32.4718 31.8789 29.9443 34.408 29.9443 37.5255C29.9443 40.6455 32.4726 43.1746 35.5926 43.1746C38.7101 43.1746 41.2375 40.6455 41.2375 37.5255C41.2375 34.408 38.7101 31.8789 35.5926 31.8789Z" fill="white"/>
</g>
</g>
</g>
<defs>
<clipPath id="clip0_1_32862">
<rect width="50" height="50" fill="white"/>
</clipPath>
</defs>
</svg>
