<svg width="50" height="50" viewBox="0 0 50 50" fill="none" xmlns="http://www.w3.org/2000/svg">
<g id="man-doing-yoga" clip-path="url(#clip0_1_32868)">
<g id="Group">
<g id="Group_2">
<path id="Vector" d="M44.3793 44.4012C47.4834 44.4012 49.9998 41.8848 49.9998 38.7807C49.9998 35.6765 47.4834 33.1602 44.3793 33.1602C41.2752 33.1602 38.7588 35.6765 38.7588 38.7807C38.7588 41.8848 41.2752 44.4012 44.3793 44.4012Z" fill="white"/>
<path id="Vector_2" d="M32.0872 32.8432H18.4901C17.9398 32.8432 17.4101 32.9259 16.9056 33.0716V8.99694C16.9056 7.11924 15.384 5.59766 13.5072 5.59766C11.6295 5.59766 10.1079 7.11924 10.1079 8.99694V38.907C7.61601 38.907 5.1223 38.907 2.6304 38.907C-0.876799 38.907 -0.876799 44.3459 2.6304 44.3459C7.66457 44.3459 12.6987 44.3459 17.7329 44.3459C17.9811 44.3791 18.2338 44.4016 18.491 44.4016H32.089C35.2788 44.4016 37.866 41.8144 37.866 38.6237C37.8633 35.4322 35.2761 32.8432 32.0872 32.8432Z" fill="white"/>
</g>
</g>
</g>
<defs>
<clipPath id="clip0_1_32868">
<rect width="50" height="50" fill="white"/>
</clipPath>
</defs>
</svg>
