<svg width="50" height="50" viewBox="0 0 50 50" fill="none" xmlns="http://www.w3.org/2000/svg">
<g id="person-practicing-a-strengthen-posture">
<g id="Group">
<g id="Group_2">
<path id="Vector" d="M45.8644 21.221C48.1486 21.221 50.0003 19.3693 50.0003 17.0851C50.0003 14.8009 48.1486 12.9492 45.8644 12.9492C43.5802 12.9492 41.7285 14.8009 41.7285 17.0851C41.7285 19.3693 43.5802 21.221 45.8644 21.221Z" fill="white"/>
<path id="Vector_2" d="M9.49254 33.7282C13.7373 31.6526 17.9821 29.5791 22.2279 27.5035C23.6133 29.5669 26.0951 29.7857 28.1686 28.7199C30.6931 27.4231 33.2206 26.1242 35.7431 24.8273C35.8489 27.1991 35.9507 29.573 36.0535 31.9448C36.1849 34.9212 40.7992 34.7207 40.6679 31.7442C40.5284 28.5418 40.391 25.3394 40.2505 22.138C41.3203 20.7332 41.3499 18.5324 40.4215 17.0951C39.0442 14.9686 36.531 14.7345 34.431 15.8115C30.7745 17.6906 27.1181 19.5687 23.4637 21.4468C23.0474 21.6605 22.7023 21.9558 22.4213 22.3008C17.2777 24.8151 12.1351 27.3294 6.99045 29.8448C4.31939 31.1487 6.84489 35.021 9.49254 33.7282Z" fill="white"/>
<path id="Vector_3" d="M49.3526 34.3789H0V37.053H49.3526V34.3789Z" fill="white"/>
</g>
</g>
</g>
</svg>
