<svg width="20" height="20" viewBox="0 0 20 20" fill="none" xmlns="http://www.w3.org/2000/svg">
<g id="PlayCircle">
<path id="Vector" d="M10 1.875C8.39303 1.875 6.82214 2.35152 5.486 3.24431C4.14985 4.1371 3.10844 5.40605 2.49348 6.8907C1.87852 8.37535 1.71762 10.009 2.03112 11.5851C2.34463 13.1612 3.11846 14.6089 4.25476 15.7452C5.39106 16.8815 6.8388 17.6554 8.4149 17.9689C9.99099 18.2824 11.6247 18.1215 13.1093 17.5065C14.594 16.8916 15.8629 15.8502 16.7557 14.514C17.6485 13.1779 18.125 11.607 18.125 10C18.1225 7.84588 17.2657 5.7807 15.7425 4.25751C14.2193 2.73431 12.1541 1.87749 10 1.875ZM12.8467 10.52L9.09668 13.02C9.00258 13.0829 8.89317 13.119 8.78014 13.1245C8.66711 13.13 8.55471 13.1047 8.45494 13.0513C8.35516 12.9979 8.27177 12.9184 8.21366 12.8213C8.15555 12.7242 8.1249 12.6132 8.125 12.5V7.5C8.1249 7.38684 8.15555 7.27577 8.21366 7.17867C8.27177 7.08156 8.35516 7.00207 8.45494 6.94867C8.55471 6.89527 8.66711 6.86998 8.78014 6.8755C8.89317 6.88101 9.00258 6.91712 9.09668 6.97998L12.8467 9.47998C12.9323 9.53705 13.0025 9.61438 13.051 9.70509C13.0996 9.79581 13.125 9.89711 13.125 10C13.125 10.1029 13.0996 10.2042 13.051 10.2949C13.0025 10.3856 12.9323 10.4629 12.8467 10.52Z" fill="#264373"/>
</g>
</svg>
