<svg width="35" height="35" viewBox="0 0 35 35" fill="none" xmlns="http://www.w3.org/2000/svg">
<g id="stretching" clip-path="url(#clip0_1_33830)">
<g id="Group">
<g id="Group_2">
<path id="Vector" d="M21.1251 5.7502C22.713 5.7502 24.0002 4.46297 24.0002 2.8751C24.0002 1.28723 22.713 0 21.1251 0C19.5372 0 18.25 1.28723 18.25 2.8751C18.25 4.46297 19.5372 5.7502 21.1251 5.7502Z" fill="white"/>
<path id="Vector_2" d="M12.2048 8.50781C11.5646 8.79226 10.9498 9.08672 10.3691 9.37823C8.61005 10.2616 10.156 12.8941 11.9103 12.0136C12.0134 11.9624 12.1182 11.9153 12.2213 11.8652C12.1695 10.7545 12.1483 9.63206 12.2048 8.50781Z" fill="white"/>
<path id="Vector_3" d="M25.1028 8.5063C25.1959 7.97863 24.9903 7.438 24.3231 7.15178C21.7878 6.06287 18.8868 6.29785 16.1248 7.06993C16.1254 7.18182 16.1201 7.2943 16.1024 7.40796C15.9587 8.33374 15.9287 9.13173 15.9469 10.0852L21.1259 9.90086C21.1259 9.90086 21.8514 10.0917 21.3108 10.3496C20.5493 10.3832 15.5241 10.6252 15.5241 10.6252C15.4622 9.34727 15.4581 8.06696 15.6525 6.81316C15.9505 4.88798 13.01 4.06114 12.709 6.00163C12.3192 8.51395 12.5076 11.0051 12.6549 13.5292C12.7185 14.6358 13.9175 15.4944 14.9511 14.8472C15.696 14.3802 16.4139 13.856 17.0983 13.2913L17.0959 14.2777L17.0747 24.9165V33.3557C17.0747 34.2644 17.739 35.0017 18.6736 35.0017C19.607 35.0017 20.3656 34.2644 20.3656 33.3557V21.2935H21.8591C21.8591 24.1197 21.8591 30.5701 21.8591 33.3969C21.8591 35.3651 24.912 35.3651 24.912 33.3969C24.912 30.5701 24.912 27.7439 24.912 24.9189C25.5345 12.1735 25.5369 12.2118 25.1028 8.5063Z" fill="white"/>
</g>
</g>
</g>
<defs>
<clipPath id="clip0_1_33830">
<rect width="35" height="35" fill="white"/>
</clipPath>
</defs>
</svg>
