<svg width="50" height="50" viewBox="0 0 50 50" fill="none" xmlns="http://www.w3.org/2000/svg">
<g id="stretching">
<g id="Group">
<g id="Group_2">
<path id="Vector" d="M30.1786 8.21457C32.447 8.21457 34.2859 6.37567 34.2859 4.10728C34.2859 1.83889 32.447 0 30.1786 0C27.9102 0 26.0713 1.83889 26.0713 4.10728C26.0713 6.37567 27.9102 8.21457 30.1786 8.21457Z" fill="white"/>
<path id="Vector_2" d="M17.4352 12.1523C16.5206 12.5587 15.6423 12.9794 14.8128 13.3958C12.2998 14.6578 14.5082 18.4184 17.0145 17.1607C17.1617 17.0875 17.3115 17.0202 17.4587 16.9487C17.3847 15.3619 17.3544 13.7584 17.4352 12.1523Z" fill="white"/>
<path id="Vector_3" d="M35.8604 12.1479C35.9933 11.3941 35.6997 10.6218 34.7465 10.2129C31.1246 8.65734 26.9803 8.99303 23.0346 10.096C23.0354 10.2558 23.0278 10.4165 23.0026 10.5789C22.7973 11.9014 22.7544 13.0414 22.7805 14.4035L30.179 14.1402C30.179 14.1402 31.2155 14.4128 30.4431 14.7813C29.3553 14.8292 22.1764 15.175 22.1764 15.175C22.0881 13.3493 22.0822 11.5203 22.3598 9.72917C22.7855 6.97893 18.5849 5.79772 18.1549 8.56985C17.598 12.1589 17.8672 15.7176 18.0775 19.3235C18.1684 20.9043 19.8813 22.131 21.3578 21.2064C22.4221 20.5392 23.4476 19.7904 24.4252 18.9836L24.4219 20.3928L24.3916 35.5911V47.6471C24.3916 48.9452 25.3406 49.9986 26.6758 49.9986C28.0092 49.9986 29.0928 48.9452 29.0928 47.6471V30.4154H31.2264C31.2264 34.4528 31.2264 43.6677 31.2264 47.706C31.2264 50.5177 35.5878 50.5177 35.5878 47.706C35.5878 43.6677 35.5878 39.6302 35.5878 35.5945C36.477 17.3868 36.4804 17.4415 35.8604 12.1479Z" fill="white"/>
</g>
</g>
</g>
</svg>
