<svg width="50" height="50" viewBox="0 0 50 50" fill="none" xmlns="http://www.w3.org/2000/svg">
<g id="yoga-posture-" clip-path="url(#clip0_1_32885)">
<g id="Group">
<g id="Group_2">
<path id="Vector" d="M48.9743 32.8022C42.595 27.6245 37.4318 21.3357 33.0911 14.3876C32.7606 13.8599 32.3485 13.4971 31.8985 13.2709C30.3665 11.97 28.0289 11.5757 26.1414 13.3371C22.4867 16.7453 18.769 20.0089 14.8017 23.0503C14.3112 23.426 13.8854 23.8615 13.546 24.3383C13.2834 24.4385 13.0305 24.5758 12.8051 24.7689C9.46472 27.6374 5.55231 30.4808 1.17448 33.2216C0.00285723 33.9553 -0.351862 35.4994 0.382625 36.6726C0.857738 37.4305 1.67222 37.8467 2.50609 37.8467C2.96019 37.8467 3.41915 37.7239 3.83204 37.4645C7.68466 35.0517 11.1979 32.555 14.3177 30.0202C15.6735 31.0747 17.7032 31.4698 19.11 30.3903C22.9852 27.4217 26.6827 24.3221 30.2873 21.0577C34.3686 27.0088 39.1027 32.4855 44.7257 37.0508C47.7057 39.4692 51.9833 35.2457 48.9743 32.8022Z" fill="white"/>
<path id="Vector_2" d="M10.9959 24.5368C13.3803 24.5368 15.3132 22.6039 15.3132 20.2196C15.3132 17.8352 13.3803 15.9023 10.9959 15.9023C8.6116 15.9023 6.67871 17.8352 6.67871 20.2196C6.67871 22.6039 8.6116 24.5368 10.9959 24.5368Z" fill="white"/>
</g>
</g>
</g>
<defs>
<clipPath id="clip0_1_32885">
<rect width="50" height="50" fill="white"/>
</clipPath>
</defs>
</svg>
